<svg width="106" height="106" viewBox="0 0 106 106" fill="none" xmlns="http://www.w3.org/2000/svg">
<g id="Person add alt 1" clip-path="url(#clip0_1_37)">
<g id="Group">
<path id="Vector" d="M57.3755 35.4996C57.3755 25.8308 49.5442 17.9996 39.8755 17.9996C30.2067 17.9996 22.3754 25.8308 22.3754 35.4996C22.3754 45.1683 30.2067 52.9996 39.8755 52.9996C49.5442 52.9996 57.3755 45.1683 57.3755 35.4996ZM66.1255 44.2496V52.9996H79.2506V66.1246H88.0006V52.9996H101.126V44.2496H88.0006V31.1246H79.2506V44.2496H66.1255ZM4.87537 79.2496V87.9995H74.8756V79.2496C74.8756 67.6121 51.5567 61.7496 39.8755 61.7496C28.1942 61.7496 4.87537 67.6121 4.87537 79.2496Z" fill="white"/>
</g>
</g>
<defs>
<clipPath id="clip0_1_37">
<rect width="105" height="105" fill="white" transform="translate(0.500366 0.499573)"/>
</clipPath>
</defs>
</svg>
